<?xml version="1.0" standalone="no"?>
<!DOCTYPE svg PUBLIC "-//W3C//DTD SVG 20010904//EN"
 "http://www.w3.org/TR/2001/REC-SVG-20010904/DTD/svg10.dtd">
<svg version="1.0" xmlns="http://www.w3.org/2000/svg"
 width="50.000000pt" height="50.000000pt" viewBox="0 0 50.000000 50.000000"
 preserveAspectRatio="xMidYMid meet">

<g transform="translate(0.000000,50.000000) scale(0.100000,-0.100000)"
fill="#000000" stroke="none">
<path d="M70 250 l0 -230 180 0 180 0 0 230 0 230 -180 0 -180 0 0 -230z m190
145 c0 -36 2 -65 5 -65 3 0 14 6 25 12 16 10 24 10 40 0 11 -6 22 -12 25 -12
3 0 5 29 5 65 0 63 1 65 25 65 l25 0 0 -210 0 -210 -160 0 -160 0 0 210 0 210
85 0 85 0 0 -65z m80 14 c0 -45 -2 -50 -15 -39 -12 10 -18 10 -30 0 -13 -11
-15 -6 -15 39 0 50 1 51 30 51 29 0 30 -1 30 -51z"/>
<path d="M140 260 c0 -6 43 -10 110 -10 67 0 110 4 110 10 0 6 -43 10 -110 10
-67 0 -110 -4 -110 -10z"/>
<path d="M140 210 c0 -6 35 -10 85 -10 50 0 85 4 85 10 0 6 -35 10 -85 10 -50
0 -85 -4 -85 -10z"/>
<path d="M140 160 c0 -6 43 -10 110 -10 67 0 110 4 110 10 0 6 -43 10 -110 10
-67 0 -110 -4 -110 -10z"/>
<path d="M140 110 c0 -6 35 -10 85 -10 50 0 85 4 85 10 0 6 -35 10 -85 10 -50
0 -85 -4 -85 -10z"/>
</g>
</svg>
