<?xml version="1.0" standalone="no"?>
<!DOCTYPE svg PUBLIC "-//W3C//DTD SVG 20010904//EN"
 "http://www.w3.org/TR/2001/REC-SVG-20010904/DTD/svg10.dtd">
<svg version="1.0" xmlns="http://www.w3.org/2000/svg"
 width="35.000000pt" height="35.000000pt" viewBox="0 0 35.000000 35.000000"
 preserveAspectRatio="xMidYMid meet">

<g transform="translate(0.000000,35.000000) scale(0.100000,-0.100000)"
fill="#000000" stroke="none">
<path d="M105 304 c-7 -7 -32 -14 -56 -16 l-44 -3 -3 -112 -3 -113 176 0 176
0 -3 113 -3 112 -44 3 c-24 2 -50 10 -58 18 -18 18 -119 17 -138 -2z m139 -19
c4 -10 20 -15 51 -15 l45 0 0 -100 0 -100 -165 0 -165 0 0 100 0 100 45 0 c31
0 47 5 51 15 9 21 129 21 138 0z"/>
<path d="M127 259 c-54 -31 -52 -126 4 -154 35 -19 53 -19 88 0 56 29 58 125
3 154 -26 14 -71 14 -95 0z m98 -24 c50 -49 20 -125 -50 -125 -70 0 -100 76
-50 125 31 32 69 32 100 0z"/>
<path d="M124 214 c-35 -53 21 -113 80 -86 58 26 36 112 -29 112 -26 0 -39 -6
-51 -26z m84 4 c21 -21 15 -67 -12 -79 -34 -16 -66 3 -66 39 0 33 16 52 45 52
12 0 26 -5 33 -12z"/>
<path d="M42 238 c5 -15 28 -18 29 -3 0 6 -7 12 -17 13 -10 3 -15 -1 -12 -10z"/>
</g>
</svg>
