<?xml version="1.0" standalone="no"?>
<!DOCTYPE svg PUBLIC "-//W3C//DTD SVG 20010904//EN"
 "http://www.w3.org/TR/2001/REC-SVG-20010904/DTD/svg10.dtd">
<svg version="1.0" xmlns="http://www.w3.org/2000/svg"
 width="32.000000pt" height="32.000000pt" viewBox="0 0 32.000000 32.000000"
 preserveAspectRatio="xMidYMid meet">

<g transform="translate(0.000000,32.000000) scale(0.100000,-0.100000)"
fill="#000000" stroke="none">
<path d="M147 284 c-4 -4 -4 -18 -1 -30 6 -22 3 -24 -29 -24 -37 0 -67 -21
-67 -46 0 -8 -7 -14 -15 -14 -10 0 -15 -11 -15 -35 0 -24 5 -35 15 -35 9 0 15
-9 15 -25 0 -22 4 -25 40 -25 22 0 40 5 40 10 0 6 -4 10 -10 10 -5 0 -10 5
-10 11 0 8 20 10 60 7 45 -3 60 -1 60 9 0 9 -19 13 -70 13 -63 0 -70 -2 -70
-20 0 -11 -5 -20 -10 -20 -7 0 -10 25 -8 68 l3 67 85 0 85 0 0 -70 0 -70 -45
0 c-33 0 -45 -4 -45 -15 0 -11 9 -14 30 -12 59 5 75 12 81 37 3 14 12 25 20
25 9 0 14 12 14 35 0 24 -5 35 -15 35 -8 0 -15 6 -15 14 0 25 -30 46 -66 46
-32 0 -34 2 -32 26 3 26 -11 41 -25 28z m-100 -156 c-3 -8 -6 -5 -6 6 -1 11 2
17 5 13 3 -3 4 -12 1 -19z m230 0 c-3 -8 -6 -5 -6 6 -1 11 2 17 5 13 3 -3 4
-12 1 -19z"/>
<path d="M104 169 c-10 -17 13 -36 27 -22 12 12 4 33 -11 33 -5 0 -12 -5 -16
-11z"/>
<path d="M184 169 c-10 -17 13 -36 27 -22 12 12 4 33 -11 33 -5 0 -12 -5 -16
-11z"/>
</g>
</svg>
