<?xml version="1.0" standalone="no"?>
<!DOCTYPE svg PUBLIC "-//W3C//DTD SVG 20010904//EN"
 "http://www.w3.org/TR/2001/REC-SVG-20010904/DTD/svg10.dtd">
<svg version="1.0" xmlns="http://www.w3.org/2000/svg"
 width="35.000000pt" height="35.000000pt" viewBox="0 0 35.000000 35.000000"
 preserveAspectRatio="xMidYMid meet">

<g transform="translate(0.000000,35.000000) scale(0.100000,-0.100000)"
fill="#000000" stroke="none">
<path d="M32 318 c-15 -15 -16 -241 -2 -269 10 -17 22 -19 148 -19 151 0 162
4 162 55 0 37 -16 55 -47 55 -22 0 -23 2 -23 96 0 85 -2 95 -15 84 -12 -10
-18 -10 -30 0 -12 10 -18 10 -30 0 -11 -9 -19 -10 -28 -1 -10 7 -17 7 -24 0
-8 -8 -17 -8 -30 0 -14 7 -23 7 -31 -1 -8 -8 -15 -8 -25 0 -10 9 -16 9 -25 0z
m50 -20 c8 8 17 8 31 1 13 -8 22 -8 30 0 7 7 14 7 24 0 9 -9 17 -8 28 1 12 10
18 10 30 0 8 -6 19 -9 25 -5 6 4 10 -21 10 -74 l0 -80 -110 -3 -110 -3 0 89
c0 79 2 87 15 76 12 -10 19 -10 27 -2z m8 -212 c0 -27 -18 -46 -36 -39 -18 6
-19 70 -1 76 18 6 37 -12 37 -37z m232 18 c22 -49 4 -59 -116 -62 l-106 -3 0
46 0 45 105 0 c104 0 106 0 117 -26z"/>
<path d="M65 260 c-4 -6 13 -10 44 -10 28 0 51 5 51 10 0 13 -87 13 -95 0z"/>
<path d="M185 260 c-4 -6 5 -10 19 -10 14 0 26 5 26 10 0 6 -9 10 -19 10 -11
0 -23 -4 -26 -10z"/>
<path d="M65 230 c3 -5 15 -10 26 -10 10 0 19 5 19 10 0 6 -12 10 -26 10 -14
0 -23 -4 -19 -10z"/>
<path d="M135 230 c8 -13 95 -13 95 0 0 6 -23 10 -51 10 -31 0 -48 -4 -44 -10z"/>
<path d="M68 203 c6 -2 18 -2 25 0 6 3 1 5 -13 5 -14 0 -19 -2 -12 -5z"/>
<path d="M133 203 c9 -2 23 -2 30 0 6 3 -1 5 -18 5 -16 0 -22 -2 -12 -5z"/>
<path d="M198 203 c6 -2 18 -2 25 0 6 3 1 5 -13 5 -14 0 -19 -2 -12 -5z"/>
<path d="M78 173 c12 -2 32 -2 45 0 12 2 2 4 -23 4 -25 0 -35 -2 -22 -4z"/>
<path d="M178 173 c12 -2 30 -2 40 0 9 3 -1 5 -23 4 -22 0 -30 -2 -17 -4z"/>
<path d="M52 86 c1 -10 8 -17 13 -17 15 1 12 24 -3 29 -9 3 -13 -2 -10 -12z"/>
</g>
</svg>
