<?xml version="1.0" standalone="no"?>
<!DOCTYPE svg PUBLIC "-//W3C//DTD SVG 20010904//EN"
 "http://www.w3.org/TR/2001/REC-SVG-20010904/DTD/svg10.dtd">
<svg version="1.0" xmlns="http://www.w3.org/2000/svg"
 width="35.000000pt" height="35.000000pt" viewBox="0 0 35.000000 35.000000"
 preserveAspectRatio="xMidYMid meet">

<g transform="translate(0.000000,35.000000) scale(0.100000,-0.100000)"
fill="#000000" stroke="none">
<path d="M28 283 c-3 -21 -3 -86 0 -145 l5 -108 142 0 142 0 5 108 c3 59 3
124 0 145 l-4 37 -143 0 -143 0 -4 -37z m282 12 c0 -13 -22 -15 -135 -15 -113
0 -135 2 -135 15 0 13 22 15 135 15 113 0 135 -2 135 -15z m-240 -60 c0 -24
-5 -35 -15 -35 -10 0 -15 11 -15 35 0 24 5 35 15 35 10 0 15 -11 15 -35z m50
-1 c0 -28 -3 -35 -17 -32 -31 6 -29 68 2 68 11 0 15 -10 15 -36z m48 -2 c3
-27 0 -32 -17 -32 -16 0 -21 6 -21 28 0 53 33 56 38 4z m50 0 c3 -27 0 -32
-17 -32 -16 0 -21 6 -21 28 0 53 33 56 38 4z m47 3 c0 -20 -6 -31 -17 -33 -15
-3 -18 4 -18 33 0 29 3 36 18 33 11 -2 17 -13 17 -33z m45 0 c0 -24 -5 -35
-15 -35 -10 0 -15 11 -15 35 0 24 5 35 15 35 10 0 15 -11 15 -35z m-12 -54 c8
-1 12 -22 12 -71 l0 -70 -85 0 -85 0 0 60 0 60 -40 0 -40 0 0 -60 c0 -33 -4
-60 -10 -60 -6 0 -10 30 -10 69 0 58 3 70 18 73 15 3 206 2 240 -1z m-173 -86
c0 -44 -3 -50 -22 -53 -22 -3 -23 0 -23 53 0 53 1 56 23 53 19 -3 22 -9 22
-53z"/>
<path d="M160 110 l0 -51 63 3 62 3 3 48 3 47 -65 0 -66 0 0 -50z m110 5 c0
-35 0 -35 -45 -35 -45 0 -45 0 -45 35 0 35 0 35 45 35 45 0 45 0 45 -35z"/>
</g>
</svg>
