<?xml version="1.0" standalone="no"?>
<!DOCTYPE svg PUBLIC "-//W3C//DTD SVG 20010904//EN"
 "http://www.w3.org/TR/2001/REC-SVG-20010904/DTD/svg10.dtd">
<svg version="1.0" xmlns="http://www.w3.org/2000/svg"
 width="35.000000pt" height="35.000000pt" viewBox="0 0 35.000000 35.000000"
 preserveAspectRatio="xMidYMid meet">

<g transform="translate(0.000000,35.000000) scale(0.100000,-0.100000)"
fill="#000000" stroke="none">
<path d="M108 278 c-16 -18 -41 -44 -54 -58 -28 -29 -31 -62 -7 -81 15 -13 15
-12 4 9 -16 30 -5 61 25 68 14 4 24 13 24 24 0 51 77 69 106 25 11 -17 26 -25
44 -25 29 0 60 -27 60 -53 0 -9 -9 -26 -21 -38 -11 -11 -18 -23 -16 -26 11
-11 47 39 47 65 0 33 -36 72 -68 72 -11 0 -32 11 -46 25 -34 34 -62 31 -98 -7z"/>
<path d="M147 204 c-14 -15 -6 -21 19 -16 20 4 25 1 22 -9 -3 -8 -25 -17 -54
-20 l-49 -6 55 1 c52 1 55 3 55 26 0 18 -6 26 -20 28 -12 2 -24 0 -28 -4z"/>
<path d="M155 121 c82 -6 90 -8 93 -27 4 -25 -24 -40 -44 -23 -9 8 -14 8 -14
1 0 -17 19 -24 44 -18 29 7 39 31 26 57 -10 17 -21 19 -103 17 l-92 -2 90 -5z"/>
<path d="M64 99 c-3 -5 13 -9 36 -9 29 0 40 -4 37 -12 -2 -7 -13 -11 -23 -10
-15 3 -16 1 -7 -8 6 -7 19 -10 27 -7 19 7 21 46 4 49 -44 5 -69 4 -74 -3z"/>
</g>
</svg>
